<svg width="40" height="38" viewBox="0 0 40 38" fill="none" xmlns="http://www.w3.org/2000/svg">
<path d="M38.0077 0.5625L22.3999 12.1547L25.2862 5.31544L38.0077 0.5625Z" fill="#E2761B" stroke="#E2761B" stroke-width="0.3125" stroke-linecap="round" stroke-linejoin="round"/>
<path d="M1.97656 0.5625L17.4589 12.2645L14.7138 5.31544L1.97656 0.5625Z" fill="#E4761B" stroke="#E4761B" stroke-width="0.3125" stroke-linecap="round" stroke-linejoin="round"/>
<path d="M32.3922 27.4336L28.2354 33.8022L37.1295 36.2493L39.6863 27.5748L32.3922 27.4336Z" fill="#E4761B" stroke="#E4761B" stroke-width="0.3125" stroke-linecap="round" stroke-linejoin="round"/>
<path d="M0.329346 27.5748L2.87052 36.2493L11.7646 33.8022L7.60778 27.4336L0.329346 27.5748Z" fill="#E4761B" stroke="#E4761B" stroke-width="0.3125" stroke-linecap="round" stroke-linejoin="round"/>
<path d="M11.2629 16.6723L8.78442 20.4213L17.6158 20.8134L17.3021 11.3232L11.2629 16.6723Z" fill="#E4761B" stroke="#E4761B" stroke-width="0.3125" stroke-linecap="round" stroke-linejoin="round"/>
<path d="M28.7217 16.6727L22.6041 11.2139L22.4001 20.8139L31.2158 20.4217L28.7217 16.6727Z" fill="#E4761B" stroke="#E4761B" stroke-width="0.3125" stroke-linecap="round" stroke-linejoin="round"/>
<path d="M11.7646 33.8014L17.0666 31.2132L12.4862 27.6367L11.7646 33.8014Z" fill="#E4761B" stroke="#E4761B" stroke-width="0.3125" stroke-linecap="round" stroke-linejoin="round"/>
<path d="M22.9177 31.2132L28.2354 33.8014L27.4981 27.6367L22.9177 31.2132Z" fill="#E4761B" stroke="#E4761B" stroke-width="0.3125" stroke-linecap="round" stroke-linejoin="round"/>
<path d="M28.2351 33.8011L22.9175 31.2129L23.341 34.6796L23.294 36.1384L28.2351 33.8011Z" fill="#D7C1B3" stroke="#D7C1B3" stroke-width="0.3125" stroke-linecap="round" stroke-linejoin="round"/>
<path d="M11.7646 33.8011L16.7058 36.1384L16.6745 34.6796L17.0666 31.2129L11.7646 33.8011Z" fill="#D7C1B3" stroke="#D7C1B3" stroke-width="0.3125" stroke-linecap="round" stroke-linejoin="round"/>
<path d="M16.7844 25.3466L12.3608 24.0446L15.4824 22.6172L16.7844 25.3466Z" fill="#233447" stroke="#233447" stroke-width="0.3125" stroke-linecap="round" stroke-linejoin="round"/>
<path d="M23.2 25.3466L24.5019 22.6172L27.6392 24.0446L23.2 25.3466Z" fill="#233447" stroke="#233447" stroke-width="0.3125" stroke-linecap="round" stroke-linejoin="round"/>
<path d="M11.7648 33.8022L12.5177 27.4336L7.60791 27.5748L11.7648 33.8022Z" fill="#CD6116" stroke="#CD6116" stroke-width="0.3125" stroke-linecap="round" stroke-linejoin="round"/>
<path d="M27.4824 27.4336L28.2354 33.8022L32.3922 27.5748L27.4824 27.4336Z" fill="#CD6116" stroke="#CD6116" stroke-width="0.3125" stroke-linecap="round" stroke-linejoin="round"/>
<path d="M31.2158 20.4219L22.4001 20.814L23.2158 25.3474L24.5178 22.618L27.655 24.0454L31.2158 20.4219Z" fill="#CD6116" stroke="#CD6116" stroke-width="0.3125" stroke-linecap="round" stroke-linejoin="round"/>
<path d="M12.3609 24.0454L15.4982 22.618L16.7844 25.3474L17.6158 20.814L8.78442 20.4219L12.3609 24.0454Z" fill="#CD6116" stroke="#CD6116" stroke-width="0.3125" stroke-linecap="round" stroke-linejoin="round"/>
<path d="M8.78418 20.4219L12.4861 27.6376L12.3606 24.0454L8.78418 20.4219Z" fill="#E4751F" stroke="#E4751F" stroke-width="0.3125" stroke-linecap="round" stroke-linejoin="round"/>
<path d="M27.6549 24.0454L27.498 27.6376L31.2157 20.4219L27.6549 24.0454Z" fill="#E4751F" stroke="#E4751F" stroke-width="0.3125" stroke-linecap="round" stroke-linejoin="round"/>
<path d="M17.6156 20.8145L16.7842 25.3478L17.8195 30.6968L18.0548 23.6537L17.6156 20.8145Z" fill="#E4751F" stroke="#E4751F" stroke-width="0.3125" stroke-linecap="round" stroke-linejoin="round"/>
<path d="M22.3998 20.8145L21.9763 23.638L22.1646 30.6968L23.2155 25.3478L22.3998 20.8145Z" fill="#E4751F" stroke="#E4751F" stroke-width="0.3125" stroke-linecap="round" stroke-linejoin="round"/>
<path d="M23.2158 25.3469L22.1648 30.6959L22.9177 31.2135L27.4981 27.6371L27.655 24.0449L23.2158 25.3469Z" fill="#F6851B" stroke="#F6851B" stroke-width="0.3125" stroke-linecap="round" stroke-linejoin="round"/>
<path d="M12.3608 24.0449L12.4863 27.6371L17.0667 31.2135L17.8197 30.6959L16.7844 25.3469L12.3608 24.0449Z" fill="#F6851B" stroke="#F6851B" stroke-width="0.3125" stroke-linecap="round" stroke-linejoin="round"/>
<path d="M23.2941 36.139L23.3411 34.6802L22.949 34.3351H17.0352L16.6745 34.6802L16.7058 36.139L11.7646 33.8018L13.4901 35.2135L16.9882 37.6449H22.996L26.5097 35.2135L28.2352 33.8018L23.2941 36.139Z" fill="#C0AD9E" stroke="#C0AD9E" stroke-width="0.3125" stroke-linecap="round" stroke-linejoin="round"/>
<path d="M22.9177 31.2139L22.1648 30.6963H17.8197L17.0667 31.2139L16.6746 34.6806L17.0353 34.3355H22.9491L23.3412 34.6806L22.9177 31.2139Z" fill="#161616" stroke="#161616" stroke-width="0.3125" stroke-linecap="round" stroke-linejoin="round"/>
<path d="M38.6667 12.9076L40.0001 6.5076L38.0079 0.5625L22.9177 11.7625L28.7216 16.6723L36.9256 19.0723L38.7452 16.9547L37.9609 16.39L39.2158 15.2449L38.2432 14.4919L39.4981 13.5351L38.6667 12.9076Z" fill="#763D16" stroke="#763D16" stroke-width="0.3125" stroke-linecap="round" stroke-linejoin="round"/>
<path d="M0 6.5076L1.33333 12.9076L0.486275 13.5351L1.74118 14.4919L0.784314 15.2449L2.03922 16.39L1.2549 16.9547L3.05882 19.0723L11.2627 16.6723L17.0667 11.7625L1.97647 0.5625L0 6.5076Z" fill="#763D16" stroke="#763D16" stroke-width="0.3125" stroke-linecap="round" stroke-linejoin="round"/>
<path d="M36.9255 19.0729L28.7216 16.6729L31.2157 20.4219L27.498 27.6376L32.3922 27.5748H39.6863L36.9255 19.0729Z" fill="#F6851B" stroke="#F6851B" stroke-width="0.3125" stroke-linecap="round" stroke-linejoin="round"/>
<path d="M11.2627 16.6729L3.05876 19.0729L0.329346 27.5748H7.60778L12.4862 27.6376L8.78425 20.4219L11.2627 16.6729Z" fill="#F6851B" stroke="#F6851B" stroke-width="0.3125" stroke-linecap="round" stroke-linejoin="round"/>
<path d="M22.4001 20.8135L22.9178 11.7625L25.3021 5.31543H14.7139L17.0668 11.7625L17.6158 20.8135L17.8041 23.6684L17.8197 30.6958H22.1648L22.1962 23.6684L22.4001 20.8135Z" fill="#F6851B" stroke="#F6851B" stroke-width="0.3125" stroke-linecap="round" stroke-linejoin="round"/>
</svg>
